<svg height="512" width="512" xmlns="http://www.w3.org/2000/svg"><path d="M256 95.096c110.47 0 216.383 46.626 209.284 160.688C454.172 434.325 330.083 557.519 256 480.746c-74.083 76.773-198.172-46.421-209.284-224.962C39.617 141.722 145.53 95.096 256 95.096z" fill="#ff4755"/><path d="M256 95.096c-3.005 0-6.005.041-9 .11 107.146 2.482 207.19 49.618 200.284 160.577-8.424 135.343-81.767 238.879-149.036 247.617 71.512 9.675 157.853-100.068 167.036-247.617C472.383 141.722 366.47 95.096 256 95.096z" fill="#fc2b3a"/><path d="M355.348 108.702c-35.297 35.297-100.033 27.787-100.033 27.787s-7.51-64.737 27.787-100.033C318.399 1.159 383.135 8.669 383.135 8.669s7.51 64.737-27.787 100.033z" fill="#98db7c"/><path d="M383.135 8.669s-4.158-.481-10.935-.627c.547 19.444-1.515 63.371-28.386 90.242-26.356 26.356-69.122 28.844-89.099 28.414.172 6.097.599 9.792.599 9.792s64.737 7.51 100.033-27.787C390.645 73.406 383.135 8.669 383.135 8.669z" fill="#82d361"/><path d="M367.973 105.605c6.202-8.064 11.254-17.553 15.065-28.342a7.515 7.515 0 0 0-4.583-9.588 7.513 7.513 0 0 0-9.588 4.583c-4.425 12.528-10.695 22.907-18.634 30.847-16.677 16.677-41.091 22.797-58.635 24.994-12.197 1.528-22.89 1.428-29.251 1.132-.758-16.387-.199-61.562 26.126-87.887 16.677-16.677 41.091-22.797 58.635-24.995 12.197-1.528 22.89-1.427 29.251-1.132.293 6.303.394 16.855-1.089 28.906a7.516 7.516 0 0 0 14.917 1.835c2.619-21.283.746-37.938.665-38.636a7.516 7.516 0 0 0-6.599-6.599c-.699-.081-17.353-1.954-38.636.665-28.68 3.53-52.116 13.671-67.772 29.328-13.571 13.571-22.99 32.994-27.559 56.603-.321.005-.644.003-.965.008-10.987-24.038-30.413-50.46-64.725-70.398a7.515 7.515 0 0 0-7.551 12.995c25.08 14.573 43.823 34.026 56.002 58.038-28.123 1.677-54.898 6.421-78.458 13.99-33.326 10.707-60.148 26.697-79.719 47.524-26.577 28.283-38.709 64.207-36.06 106.776a7.515 7.515 0 0 0 15-.934c-2.381-38.263 8.389-70.411 32.012-95.55 31.725-33.761 87.135-54.198 153.65-57.098a152.229 152.229 0 0 1 4.582 14.536c5.044 19.307 5.337 36.047 4.989 44.936-27.584-2.131-45.918-16.189-46.098-16.33a7.516 7.516 0 0 0-9.32 11.79c1.025.811 25.535 19.848 62.377 19.848s61.352-19.037 62.378-19.848a7.515 7.515 0 0 0-9.32-11.79c-.191.151-17.823 13.836-44.954 16.244.161-4.517.153-10.569-.379-17.719a189.593 189.593 0 0 0 29.359-1.278c26.255-3.231 48.094-12.018 63.614-25.489 32.255 10.964 57.4 27.147 74.743 48.171 19.946 24.179 28.947 54.318 26.752 89.578-3.231 51.917-16.345 101.819-37.923 144.312-1.735 3.416-.549 7.712 2.689 9.756 3.696 2.333 8.736.938 10.711-2.951 22.499-44.306 36.165-96.238 39.522-150.183 4.402-70.68-32.868-123.816-105.221-150.648zm48.131 317.217a7.514 7.514 0 0 0-10.386 2.251c-27.313 42.423-60.979 68.519-92.368 71.598-19.379 1.897-36.851-5.065-51.939-20.701-2.912-3.018-7.903-3.018-10.815 0-18.916 19.604-42.209 25.62-67.363 17.394-27.327-8.936-54.967-33.681-77.83-69.677-24.771-39.001-41.606-87.069-48.686-139.007a7.51 7.51 0 0 0-8.461-6.43 7.515 7.515 0 0 0-6.431 8.46c7.37 54.068 24.968 104.22 50.89 145.035 24.726 38.931 55.214 65.888 85.845 75.904 28.203 9.222 55.437 3.51 77.439-16.044C271.09 505.044 288.587 512 307.282 512c2.491 0 5.005-.124 7.535-.372 35.986-3.53 73.724-32.113 103.538-78.419a7.516 7.516 0 0 0-2.251-10.387z"/></svg>
