<svg id="Capa_1" enable-background="new 0 0 512 512" height="512" viewBox="0 0 512 512" width="512" xmlns="http://www.w3.org/2000/svg"><path d="m256 95.096c110.47 0 216.383 46.626 209.284 160.688-11.112 178.541-135.201 301.735-209.284 224.962-74.083 76.773-198.172-46.421-209.284-224.962-7.099-114.062 98.814-160.688 209.284-160.688z" fill="#ff4755"/><path d="m256 95.096c-3.005 0-6.005.041-9 .11 107.146 2.482 207.19 49.618 200.284 160.577-8.424 135.343-81.767 238.879-149.036 247.617 71.512 9.675 157.853-100.068 167.036-247.617 7.099-114.061-98.814-160.687-209.284-160.687z" fill="#fc2b3a"/><path d="m355.348 108.702c-35.297 35.297-100.033 27.787-100.033 27.787s-7.51-64.737 27.787-100.033c35.297-35.297 100.033-27.787 100.033-27.787s7.51 64.737-27.787 100.033z" fill="#98db7c"/><path d="m383.135 8.669s-4.158-.481-10.935-.627c.547 19.444-1.515 63.371-28.386 90.242-26.356 26.356-69.122 28.844-89.099 28.414.172 6.097.599 9.792.599 9.792s64.737 7.51 100.033-27.787c35.298-35.297 27.788-100.034 27.788-100.034z" fill="#82d361"/><path d="m367.973 105.605c6.202-8.064 11.254-17.553 15.065-28.342 1.382-3.913-.67-8.206-4.583-9.588-3.913-1.384-8.206.67-9.588 4.583-4.425 12.528-10.695 22.907-18.634 30.847-16.677 16.677-41.091 22.797-58.635 24.994-12.197 1.528-22.89 1.428-29.251 1.132-.758-16.387-.199-61.562 26.126-87.887 16.677-16.677 41.091-22.797 58.635-24.995 12.197-1.528 22.89-1.427 29.251-1.132.293 6.303.394 16.855-1.089 28.906-.507 4.119 2.421 7.869 6.541 8.376 4.12.505 7.869-2.422 8.376-6.541 2.619-21.283.746-37.938.665-38.636-.402-3.464-3.135-6.197-6.599-6.599-.699-.081-17.353-1.954-38.636.665-28.68 3.53-52.116 13.671-67.772 29.328-13.571 13.571-22.99 32.994-27.559 56.603-.321.005-.644.003-.965.008-10.987-24.038-30.413-50.46-64.725-70.398-3.587-2.084-8.187-.866-10.273 2.722-2.085 3.588-.866 8.188 2.722 10.273 25.08 14.573 43.823 34.026 56.002 58.038-28.123 1.677-54.898 6.421-78.458 13.99-33.326 10.707-60.148 26.697-79.719 47.524-26.577 28.283-38.709 64.207-36.06 106.776.248 3.983 3.556 7.048 7.493 7.048.157 0 .316-.005.474-.015 4.142-.258 7.291-3.824 7.033-7.967-2.381-38.263 8.389-70.411 32.012-95.55 31.725-33.761 87.135-54.198 153.65-57.098 1.745 4.698 3.277 9.541 4.582 14.536 5.044 19.307 5.337 36.047 4.989 44.936-27.584-2.131-45.918-16.189-46.098-16.33-3.255-2.573-7.982-2.02-10.555 1.235-2.574 3.256-2.021 7.982 1.235 10.555 1.025.811 25.535 19.848 62.377 19.848s61.352-19.037 62.378-19.848c3.256-2.573 3.809-7.299 1.235-10.555-2.573-3.255-7.298-3.809-10.555-1.235-.191.151-17.823 13.836-44.954 16.244.161-4.517.153-10.569-.379-17.719 1.897.066 4.04.111 6.397.111 6.372 0 14.282-.322 22.962-1.389 26.255-3.231 48.094-12.018 63.614-25.489 32.255 10.964 57.4 27.147 74.743 48.171 19.946 24.179 28.947 54.318 26.752 89.578-3.231 51.917-16.345 101.819-37.923 144.312-1.735 3.416-.549 7.712 2.689 9.756 3.696 2.333 8.736.938 10.711-2.951 22.499-44.306 36.165-96.238 39.522-150.183 4.402-70.68-32.868-123.816-105.221-150.648z"/><path d="m416.104 422.822c-3.491-2.247-8.14-1.238-10.386 2.251-27.313 42.423-60.979 68.519-92.368 71.598-19.379 1.897-36.851-5.065-51.939-20.701-2.912-3.018-7.903-3.018-10.815 0-18.916 19.604-42.209 25.62-67.363 17.394-27.327-8.936-54.967-33.681-77.83-69.677-24.771-39.001-41.606-87.069-48.686-139.007-.561-4.112-4.342-6.993-8.461-6.43-4.112.561-6.991 4.348-6.431 8.46 7.37 54.068 24.968 104.22 50.89 145.035 24.726 38.931 55.214 65.888 85.845 75.904 28.203 9.222 55.437 3.51 77.439-16.044 15.091 13.439 32.588 20.395 51.283 20.395 2.491 0 5.005-.124 7.535-.372 35.986-3.53 73.724-32.113 103.538-78.419 2.246-3.49 1.239-8.14-2.251-10.387z"/></svg>