<svg height="512" width="512" xmlns="http://www.w3.org/2000/svg"><path d="M501.329 335.836c-14.975-69.146-42.446-76.523-55.34-168.836-9.683-69.32-48.661-114.51-104.586-114.51-37.157 0-66.829 19.955-85.402 53.676 9.381 17.032 15.934 37.571 19.184 60.834 12.895 92.313 40.365 99.69 55.34 168.836 9.746 45.002-5.457 117.849-74.524 150.885C278.449 497.458 306.576 504 341.402 504c141.977 0 172.841-108.535 159.927-168.164z" fill="#348021"/><path d="M341.403 486c-25.869 0-48.035-3.615-66.929-9.872a141.135 141.135 0 0 1-18.473 10.593C278.449 497.458 306.575 504 341.403 504c129.159 0 166.356-89.819 162.297-150.931C499.901 412.36 458.352 486 341.403 486z" fill="#2e701b"/><path d="M170.598 504c141.976 0 172.841-108.535 159.926-168.164-14.975-69.146-42.446-76.523-55.34-168.836-9.683-69.32-48.662-114.51-104.586-114.51-55.925 0-94.903 45.19-104.586 114.51-12.895 92.313-40.365 99.69-55.34 168.836C-2.243 395.465 28.621 504 170.598 504z" fill="#98db7c"/><path d="M170.598 486C53.648 486 12.099 412.36 8.3 353.069 4.242 414.181 41.438 504 170.598 504c129.159 0 166.356-89.819 162.298-150.931C329.096 412.36 287.547 486 170.598 486z" fill="#82d361"/><path d="M170.598 474.2c123.235 0 141.025-94.208 129.816-145.966-12.998-60.018-36.843-66.422-48.035-146.549-8.405-60.169-33.238-99.394-81.78-99.394s-73.376 39.225-81.78 99.394c-11.192 80.128-35.037 86.531-48.035 146.549C29.572 379.992 47.362 474.2 170.598 474.2z" fill="#ffeca1"/><path d="M170.598 456.2c-97.682 0-129.108-59.188-132.36-109.511-3.47 52.904 22.691 127.511 132.36 127.511s135.829-74.607 132.36-127.511C299.705 397.012 268.28 456.2 170.598 456.2z" fill="#ffdf85"/><path d="M170.312 430.065c33.938 0 67.394-20.144 61.451-69.283-5.41-44.735-36.307-81.232-61.451-81.232s-56.041 36.497-61.451 81.232c-5.942 49.139 27.513 69.283 61.451 69.283z" fill="#994e37"/><path d="M170.312 412.065c-28.967 0-57.576-14.679-61.643-49.532-4.943 47.865 28.111 67.532 61.643 67.532 33.531 0 66.586-19.667 61.643-67.532-4.067 34.853-32.676 49.532-61.643 49.532z" fill="#844131"/><path d="M117.777 351.618a7.515 7.515 0 0 0-5.741-8.943 7.51 7.51 0 0 0-8.944 5.741 126.058 126.058 0 0 0-1.976 11.669c-2.748 22.719 2.269 42.026 14.507 55.834 12.576 14.188 31.94 22.002 54.524 22.002 22.585 0 41.948-7.814 54.524-22.003 12.238-13.807 17.254-33.115 14.506-55.833-2.716-22.47-11.566-44.218-24.918-61.24-13.341-17.009-29.42-26.764-44.113-26.764-17.296 0-36.103 13.276-50.306 35.512a121.344 121.344 0 0 0-6.534 11.609 7.514 7.514 0 0 0 3.414 10.064 7.514 7.514 0 0 0 10.064-3.414 106.823 106.823 0 0 1 5.722-10.168c11.088-17.358 25.862-28.573 37.641-28.573 9.897 0 21.968 7.854 32.288 21.01 11.511 14.675 19.465 34.273 21.823 53.768 2.247 18.589-1.397 33.413-10.834 44.06-9.543 10.767-25.317 16.942-43.277 16.942s-33.734-6.175-43.277-16.942c-9.437-10.647-13.082-25.471-10.834-44.061.412-3.409.998-6.865 1.741-10.27z"/><path d="M509.156 334.401c-6.673-30.814-15.917-50.069-24.856-68.689-11.466-23.882-23.321-48.576-30.494-99.927C443.78 94.012 403.742 48.346 348.547 44.807c-1.249-9.493-5.354-26.555-18.79-42.19a7.514 7.514 0 1 0-11.399 9.795c10.113 11.768 13.709 24.708 14.99 32.487-31.465 2.4-58.379 18.636-77.329 46.579-20.295-29.93-50.056-46.902-85.585-46.902-58.785 0-101.79 46.445-112.233 121.209-7.173 51.351-19.028 76.046-30.494 99.927-8.939 18.62-18.183 37.874-24.857 68.688-6.657 30.735-2.981 80.82 29.284 120.82 37.851 46.93 96.101 56.78 138.3 56.78 25.352 0 56.493-3.569 85.528-16.583C280.334 506.413 309.106 512 341.572 512c47.258 0 86.163-11.617 115.633-34.529a7.514 7.514 0 1 0-9.225-11.865c-26.77 20.812-62.57 31.365-106.408 31.365-25.408 0-48.273-3.607-68.208-10.724 12.837-7.887 24.888-18.029 35.37-31.025 32.264-40 35.938-90.085 29.282-120.82-6.673-30.814-15.917-50.068-24.856-68.688-6.789-14.14-13.809-28.763-19.772-48.73a7.514 7.514 0 1 0-14.401 4.301c6.302 21.102 13.583 36.268 20.624 50.933 8.957 18.657 17.418 36.279 23.716 65.365 5.955 27.495 2.643 72.331-26.292 108.203-27.01 33.486-70.789 51.185-126.603 51.185s-99.593-17.7-126.603-51.185c-28.935-35.872-32.248-80.708-26.293-108.203 6.299-29.085 14.759-46.707 23.717-65.365 11.963-24.918 24.334-50.685 31.83-104.353 4.602-32.945 16.07-60.411 33.166-79.429 16.956-18.861 39.15-28.83 64.182-28.83s47.226 9.969 64.182 28.83c17.096 19.018 28.565 46.483 33.166 79.428 1.143 8.189 2.455 16.08 3.898 23.454a7.514 7.514 0 0 0 8.818 5.931 7.514 7.514 0 0 0 5.931-8.818c-1.391-7.107-2.658-14.726-3.763-22.645-3.173-22.715-9.356-42.81-18.07-59.788 17.795-29.951 44.988-46.391 76.976-46.391 25.032 0 47.226 9.97 64.182 28.83 17.096 19.018 28.565 46.483 33.166 79.429 7.496 53.667 19.867 79.434 31.83 104.352 8.957 18.658 17.418 36.28 23.716 65.366 5.906 27.269 2.69 71.813-25.813 107.606-2.322 2.916-2.114 7.224.476 9.903 3.11 3.217 8.497 2.954 11.282-.541 31.784-39.911 35.35-89.668 28.748-120.151z"/></svg>
