<?xml version="1.0" encoding="iso-8859-1"?>
<!-- Generator: Adobe Illustrator 19.0.0, SVG Export Plug-In . SVG Version: 6.00 Build 0)  -->
<svg version="1.1" id="Capa_1" xmlns="http://www.w3.org/2000/svg" xmlns:xlink="http://www.w3.org/1999/xlink" x="0px" y="0px"
	 viewBox="0 0 512.001 512.001" style="enable-background:new 0 0 512.001 512.001;" xml:space="preserve">
<path style="fill:#25C2CE;" d="M410.232,54.754v402.5c0,26.035-69.059,47.147-154.235,47.147c-33.765,0-65.007-3.323-90.403-8.955
	c-38.668-8.56-63.821-22.479-63.821-38.191v-402.5H410.232z"/>
<path style="fill:#19A2A5;" d="M165.594,54.754v440.691c-38.668-8.56-63.821-22.479-63.821-38.191v-402.5H165.594z"/>
<ellipse style="fill:#B6C5D8;" cx="256.005" cy="54.755" rx="154.225" ry="47.154"/>
<path style="fill:#95A5B7;" d="M410.232,54.754c0,4.518-2.087,8.894-5.977,13.038c-18.488-19.704-77.862-34.119-148.258-34.119
	s-129.77,14.416-148.248,34.119c-3.89-4.143-5.977-8.52-5.977-13.038c0-26.045,69.059-47.157,154.235-47.157
	S410.232,28.708,410.232,54.754z"/>
<path style="fill:#122944;" d="M250.678,92.023c0,3.454-1.297,6.757-3.667,9.796c-39.255-0.689-74.58-5.865-100.554-13.879
	c3.87-12.744,25.589-22.5,51.807-22.5C227.217,65.441,250.678,77.344,250.678,92.023z"/>
<path style="fill:#F4E662;" d="M256.761,149.009L200.54,288.801h54.701l-45.585,165.623l118.519-197.532h-39.506l59.26-121.558
	l-8.593,2.76C312.688,146.65,284.718,150.348,256.761,149.009L256.761,149.009z"/>
<path d="M367.277,14.143C337.447,5.023,297.929,0,256.001,0s-81.446,5.023-111.277,14.143c-33.07,10.11-50.549,24.153-50.549,40.609
	v250.256c0,4.196,3.402,7.598,7.598,7.598l0,0c4.196,0,7.598-3.402,7.598-7.598V79.196c8.419,6.111,20.256,11.548,35.353,16.164
	c29.83,9.12,69.349,14.143,111.277,14.143s81.446-5.023,111.276-14.143c15.097-4.616,26.934-10.053,35.353-16.164v78.93
	c0,4.196,3.402,7.598,7.598,7.598l0,0c4.196,0,7.598-3.402,7.598-7.598V54.752C417.826,38.296,400.346,24.253,367.277,14.143z
	 M149.167,28.674c28.429-8.692,66.37-13.478,106.834-13.478s78.404,4.787,106.833,13.478c18.358,5.613,39.796,15.81,39.796,26.077
	c0,0.511-0.068,1.022-0.17,1.532c-25.584-18.312-82.092-30.209-146.463-30.209c-64.372,0-120.879,11.897-146.455,30.209
	c-0.103-0.511-0.17-1.021-0.17-1.532C109.371,44.484,130.809,34.287,149.167,28.674z M242.712,94.123
	c-31.047-0.815-60.079-4.48-83.81-10.579c7.364-5.763,21.607-10.505,39.362-10.505c27.767,0,44.817,11.057,44.817,18.984
	C243.081,92.711,242.952,93.412,242.712,94.123z M362.834,80.828c-27.926,8.538-65.037,13.297-104.694,13.463
	c0.082-0.754,0.137-1.51,0.137-2.268c0-19.486-25.8-34.18-60.012-34.18c-25.324,0-46.665,8.287-55.564,20.853
	c-8.396-2.963-16.84-6.74-23.128-10.927c7.371-5.025,20.707-11.452,44.56-17.029c26.506-6.196,58.272-9.471,91.864-9.471
	s65.358,3.275,91.865,9.471c23.853,5.576,37.193,12.003,44.567,17.029C384.515,73.041,373.185,77.663,362.834,80.828z"/>
<path d="M402.63,457.248c0,10.267-21.438,20.464-39.796,26.077c-28.429,8.692-66.37,13.478-106.833,13.478
	s-78.404-4.787-106.834-13.478c-18.358-5.613-39.796-15.81-39.796-26.077V340.464c0-4.196-3.402-7.598-7.598-7.598l0,0
	c-4.196,0-7.598,3.402-7.598,7.598v116.785c0,16.456,17.479,30.497,50.549,40.609c29.83,9.12,69.349,14.143,111.277,14.143
	s81.446-5.023,111.276-14.143c33.07-10.11,50.549-24.153,50.549-40.609V193.582c0-4.196-3.402-7.598-7.598-7.598l0,0
	c-4.196,0-7.598,3.402-7.598,7.598V457.248z"/>
<path d="M278.124,462.211c0.241,4.035,3.588,7.146,7.578,7.146c0.152,0,0.306-0.004,0.46-0.014
	c27.625-1.648,53.428-5.582,74.618-11.376c4.048-1.107,6.432-5.285,5.325-9.333c-1.106-4.047-5.285-6.432-9.332-5.325
	c-20.193,5.521-44.922,9.278-71.515,10.866C281.067,454.424,277.873,458.022,278.124,462.211z"/>
<path d="M345.606,128.1l-8.593,2.76c-25.87,8.308-52.749,11.861-79.89,10.561c-3.238-0.156-6.206,1.754-7.412,4.754l-56.221,139.792
	c-0.941,2.341-0.658,4.997,0.754,7.089c1.413,2.091,3.772,3.344,6.295,3.344h44.73l-42.938,156.009
	c-1.008,3.662,0.844,7.506,4.335,9.001c0.97,0.415,1.986,0.614,2.986,0.614c2.599,0,5.108-1.338,6.519-3.689l118.519-197.532
	c1.408-2.347,1.446-5.271,0.096-7.652c-1.348-2.382-3.874-3.855-6.611-3.855h-27.35l53.933-110.631
	c1.333-2.736,0.906-6.004-1.087-8.305C351.679,128.058,348.506,127.169,345.606,128.1z M281.841,253.562
	c-1.148,2.354-1.002,5.135,0.387,7.357c1.389,2.222,3.823,3.571,6.443,3.571h26.087l-83.033,138.388l30.842-112.061
	c0.629-2.286,0.155-4.735-1.281-6.621c-1.438-1.886-3.672-2.993-6.044-2.993h-43.456l50.033-124.406
	c24.249,0.619,48.259-2.392,71.571-8.975L281.841,253.562z"/>
<g>
</g>
<g>
</g>
<g>
</g>
<g>
</g>
<g>
</g>
<g>
</g>
<g>
</g>
<g>
</g>
<g>
</g>
<g>
</g>
<g>
</g>
<g>
</g>
<g>
</g>
<g>
</g>
<g>
</g>
</svg>
