<svg xmlns="http://www.w3.org/2000/svg" viewBox="0 0 512.001 512.001" style="enable-background:new 0 0 512.001 512.001" xml:space="preserve"><path style="fill:#25c2ce" d="M410.232 54.754v402.5c0 26.035-69.059 47.147-154.235 47.147-33.765 0-65.007-3.323-90.403-8.955-38.668-8.56-63.821-22.479-63.821-38.191v-402.5h308.459z"/><path style="fill:#19a2a5" d="M165.594 54.754v440.691c-38.668-8.56-63.821-22.479-63.821-38.191v-402.5h63.821z"/><ellipse style="fill:#b6c5d8" cx="256.005" cy="54.755" rx="154.225" ry="47.154"/><path style="fill:#95a5b7" d="M410.232 54.754c0 4.518-2.087 8.894-5.977 13.038-18.488-19.704-77.862-34.119-148.258-34.119s-129.77 14.416-148.248 34.119c-3.89-4.143-5.977-8.52-5.977-13.038 0-26.045 69.059-47.157 154.235-47.157s154.225 21.111 154.225 47.157z"/><path style="fill:#122944" d="M250.678 92.023c0 3.454-1.297 6.757-3.667 9.796-39.255-.689-74.58-5.865-100.554-13.879 3.87-12.744 25.589-22.5 51.807-22.5 28.953.001 52.414 11.904 52.414 26.583z"/><path style="fill:#f4e662" d="M256.761 149.009 200.54 288.801h54.701l-45.585 165.623 118.519-197.532h-39.506l59.26-121.558-8.593 2.76a233.566 233.566 0 0 1-82.575 10.915z"/><path d="M367.277 14.143C337.447 5.023 297.929 0 256.001 0s-81.446 5.023-111.277 14.143c-33.07 10.11-50.549 24.153-50.549 40.609v250.256a7.598 7.598 0 0 0 15.196 0V79.196c8.419 6.111 20.256 11.548 35.353 16.164 29.83 9.12 69.349 14.143 111.277 14.143s81.446-5.023 111.276-14.143c15.097-4.616 26.934-10.053 35.353-16.164v78.93a7.598 7.598 0 0 0 15.196 0V54.752c0-16.456-17.48-30.499-50.549-40.609zm-218.11 14.531c28.429-8.692 66.37-13.478 106.834-13.478s78.404 4.787 106.833 13.478c18.358 5.613 39.796 15.81 39.796 26.077 0 .511-.068 1.022-.17 1.532-25.584-18.312-82.092-30.209-146.463-30.209-64.372 0-120.879 11.897-146.455 30.209a7.755 7.755 0 0 1-.17-1.532c-.001-10.267 21.437-20.464 39.795-26.077zm93.545 65.449c-31.047-.815-60.079-4.48-83.81-10.579 7.364-5.763 21.607-10.505 39.362-10.505 27.767 0 44.817 11.057 44.817 18.984a6.56 6.56 0 0 1-.369 2.1zm120.122-13.295c-27.926 8.538-65.037 13.297-104.694 13.463.082-.754.137-1.51.137-2.268 0-19.486-25.8-34.18-60.012-34.18-25.324 0-46.665 8.287-55.564 20.853-8.396-2.963-16.84-6.74-23.128-10.927 7.371-5.025 20.707-11.452 44.56-17.029 26.506-6.196 58.272-9.471 91.864-9.471s65.358 3.275 91.865 9.471c23.853 5.576 37.193 12.003 44.567 17.029-7.914 5.272-19.244 9.894-29.595 13.059zm39.796 376.42c0 10.267-21.438 20.464-39.796 26.077-28.429 8.692-66.37 13.478-106.833 13.478s-78.404-4.787-106.834-13.478c-18.358-5.613-39.796-15.81-39.796-26.077V340.464a7.598 7.598 0 0 0-15.196 0v116.785c0 16.456 17.479 30.497 50.549 40.609 29.83 9.12 69.349 14.143 111.277 14.143s81.446-5.023 111.276-14.143c33.07-10.11 50.549-24.153 50.549-40.609V193.582a7.598 7.598 0 0 0-15.196 0v263.666z"/><path d="M278.124 462.211a7.599 7.599 0 0 0 8.038 7.132c27.625-1.648 53.428-5.582 74.618-11.376a7.598 7.598 0 0 0 5.325-9.333 7.597 7.597 0 0 0-9.332-5.325c-20.193 5.521-44.922 9.278-71.515 10.866a7.596 7.596 0 0 0-7.134 8.036zM345.606 128.1l-8.593 2.76a225.168 225.168 0 0 1-79.89 10.561 7.59 7.59 0 0 0-7.412 4.754L193.49 285.967a7.598 7.598 0 0 0 7.049 10.433h44.73l-42.938 156.009a7.599 7.599 0 0 0 13.84 5.926L334.69 260.803a7.597 7.597 0 0 0-6.515-11.507h-27.35l53.933-110.631a7.6 7.6 0 0 0-9.152-10.565zm-63.765 125.462a7.598 7.598 0 0 0 6.83 10.928h26.087l-83.033 138.388 30.842-112.061a7.6 7.6 0 0 0-7.325-9.614h-43.456l50.033-124.406a240.163 240.163 0 0 0 71.571-8.975l-51.549 105.74z"/></svg>
