<svg height="512" width="512" xmlns="http://www.w3.org/2000/svg"><path d="M389.287 94.24c.663 47.265-48.526 84.921-48.526 84.921s-50.262-38.975-50.925-86.24S338.362 8 338.362 8s50.263 38.975 50.925 86.24z" fill="#98db7c"/><path d="M338.362 8s-3.683 2.822-9.015 7.881c14.488 13.711 41.456 43.82 41.94 78.359.481 34.338-25.346 63.6-39.511 77.04 5.338 5.052 8.985 7.881 8.985 7.881s49.189-37.656 48.526-84.921C388.625 46.975 338.362 8 338.362 8z" fill="#82d361"/><g fill="#936cff"><ellipse cx="69.335" cy="444.335" rx="62.046" ry="58.925" transform="rotate(-28.84 69.2 444.365)"/><ellipse cx="222.761" cy="295.005" rx="62.046" ry="58.925" transform="rotate(-28.84 222.67 295.075)"/><ellipse cx="307.591" cy="377.526" rx="62.046" ry="58.925" transform="rotate(-28.84 307.477 377.623)"/><ellipse cx="137.93" cy="212.485" rx="62.046" ry="58.925" transform="rotate(-28.84 137.864 212.53)"/><ellipse cx="103.66" cy="328.425" rx="62.046" ry="58.925" transform="rotate(-28.84 103.557 328.457)"/><ellipse cx="188.49" cy="410.945" rx="62.046" ry="58.925" transform="rotate(-28.84 188.358 410.997)"/><ellipse cx="257.102" cy="179.161" rx="62.046" ry="58.925" transform="rotate(-28.84 257.05 179.241)"/><ellipse cx="341.933" cy="261.681" rx="62.046" ry="58.925" transform="rotate(-28.84 341.85 261.787)"/></g><path d="M111.75 465.854c-24.469 23.803-63.295 24.626-86.72 1.839-8.847-8.607-14.227-19.351-16.185-30.672-3.082 18.045 2.267 36.873 16.185 50.413 23.425 22.787 62.251 21.964 86.72-1.839 15.228-14.813 21.301-35.034 18.075-53.688-2.105 12.326-8.144 24.287-18.075 33.947zm153.426-149.329c-24.469 23.803-63.295 24.626-86.72 1.839-8.847-8.607-14.227-19.351-16.185-30.672-3.083 18.045 2.266 36.873 16.185 50.413 23.425 22.787 62.251 21.964 86.72-1.839 15.228-14.813 21.301-35.034 18.075-53.688-2.106 12.326-8.145 24.286-18.075 33.947zm84.83 82.52c-24.469 23.803-63.295 24.626-86.72 1.839-8.847-8.606-14.227-19.35-16.185-30.671-3.083 18.045 2.266 36.873 16.185 50.412 23.425 22.787 62.251 21.964 86.72-1.839 15.228-14.813 21.301-35.034 18.075-53.688-2.106 12.326-8.144 24.287-18.075 33.947zM180.345 234.004c-24.469 23.803-63.295 24.626-86.72 1.839-8.847-8.606-14.227-19.351-16.185-30.672-3.083 18.045 2.267 36.873 16.185 50.413 23.425 22.787 62.251 21.964 86.72-1.839 15.228-14.813 21.301-35.034 18.075-53.688-2.105 12.326-8.144 24.287-18.075 33.947z" fill="#8165ea"/><path d="M146.075 349.944c-24.469 23.803-63.295 24.626-86.72 1.839-8.847-8.606-14.227-19.351-16.185-30.671-3.082 18.045 2.266 36.873 16.185 50.413 23.425 22.787 62.251 21.964 86.72-1.839 15.228-14.813 21.301-35.034 18.075-53.688-2.106 12.325-8.145 24.286-18.075 33.946zm84.83 82.52c-24.469 23.803-63.295 24.626-86.721 1.839-8.847-8.606-14.227-19.351-16.185-30.672-3.082 18.045 2.267 36.873 16.185 50.412 23.425 22.787 62.251 21.964 86.721-1.839 15.228-14.813 21.301-35.034 18.075-53.688-2.106 12.327-8.144 24.288-18.075 33.948zm68.612-231.784c-24.469 23.803-63.295 24.626-86.72 1.839-8.847-8.606-14.227-19.351-16.185-30.671-3.083 18.045 2.266 36.873 16.185 50.412 23.425 22.787 62.251 21.964 86.72-1.839 15.228-14.813 21.301-35.034 18.075-53.688-2.105 12.326-8.144 24.286-18.075 33.947zm84.831 82.52c-24.469 23.803-63.295 24.626-86.721 1.839-8.847-8.606-14.227-19.351-16.185-30.671-3.082 18.045 2.266 36.873 16.185 50.413 23.425 22.787 62.251 21.964 86.721-1.839 15.228-14.813 21.301-35.034 18.075-53.688-2.106 12.325-8.145 24.286-18.075 33.946z" fill="#8165ea"/><path d="M507.969 104.303c-1.572-.824-38.878-20.005-71.665-7.26-16.088 6.255-28.103 18.922-35.758 37.685-5.646 1.546-11.358 3.745-17.059 6.438 8.892-15.484 13.554-31.164 13.58-46.153a7.515 7.515 0 0 0-7.501-7.528h-.014a7.515 7.515 0 0 0-7.514 7.503c-.06 34.351-29.537 63.924-41.104 74.206-11.94-10.613-43.028-41.582-43.52-76.687-.487-34.751 29.419-64.771 41.094-75.151 8.896 7.919 28.425 27.152 38.003 50.939a7.514 7.514 0 1 0 13.941-5.615c-14.123-35.075-45.978-60.056-47.327-61.102a7.512 7.512 0 0 0-9.173-.028c-2.135 1.634-52.275 40.611-51.566 91.168.111 7.956 1.536 16.142 4.214 24.426-25.114-10.592-56.057-5.452-77.236 15.153-9.876 9.609-16.531 21.41-19.485 34.182a65.11 65.11 0 0 0-2.551-2.631c-26.323-25.609-70.003-24.784-97.37 1.842-13.692 13.32-21.232 30.844-21.232 49.345 0 17.507 6.868 33.829 19.339 45.961a65.166 65.166 0 0 0 2.277 2.104 72.338 72.338 0 0 0-34.721 18.768c-6.04 5.875-10.917 12.624-14.496 20.06a7.516 7.516 0 0 0 13.541 6.521c2.814-5.845 6.661-11.163 11.434-15.807 21.589-21.001 55.866-21.829 76.41-1.843 9.447 9.191 14.788 22.011 14.789 35.186 0 14.408-5.925 28.105-16.682 38.571-21.588 21.005-55.866 21.831-76.41 1.843-8.751-8.513-13.972-19.942-14.699-32.18-.247-4.143-3.798-7.332-7.947-7.056a7.516 7.516 0 0 0-7.056 7.948c.951 15.99 7.777 30.928 19.223 42.062a65.739 65.739 0 0 0 2.236 2.067 72.342 72.342 0 0 0-34.734 18.776C7.54 411.336 0 428.86 0 447.361c0 17.507 6.868 33.829 19.338 45.96C32.163 505.799 49.108 512 66.28 512a72.374 72.374 0 0 0 50.428-20.522c9.887-9.619 16.547-21.436 19.495-34.225a64.547 64.547 0 0 0 2.523 2.609c12.826 12.478 29.77 18.679 46.942 18.679a72.374 72.374 0 0 0 50.428-20.522c9.88-9.612 16.549-21.415 19.501-34.192.798.866 1.613 1.72 2.463 2.547 12.825 12.478 29.77 18.679 46.942 18.679a72.379 72.379 0 0 0 50.428-20.522 71.6 71.6 0 0 0 11.249-14.085 7.516 7.516 0 0 0-12.84-7.813 56.578 56.578 0 0 1-8.889 11.123c-21.589 21.003-55.865 21.829-76.41 1.843-9.537-9.278-14.789-21.775-14.789-35.188.001-14.406 5.925-28.104 16.683-38.57 21.588-21.002 55.865-21.829 76.41-1.843 10.142 9.866 15.376 23.171 14.737 37.464a7.515 7.515 0 0 0 7.172 7.843c4.137.224 7.657-3.026 7.842-7.172.832-18.641-6.012-36.01-19.272-48.91a64.17 64.17 0 0 0-2.176-2.011 72.346 72.346 0 0 0 34.691-18.765c13.692-13.321 21.232-30.845 21.232-49.346 0-17.507-6.868-33.829-19.339-45.961-15.48-15.06-36.961-20.966-57.598-17.871 17.691-16.56 40.001-34.421 61.324-42.983-4.391 27.053 9.265 46.434 25.994 53.802 19.416 8.55 39.867 1.369 49.733-17.466 6.228-11.891 4.893-25.138-3.661-36.349-10.455-13.701-28.789-21.082-48.957-20.327 5.808-10.135 13.552-17.135 23.124-20.873 26.373-10.295 58.993 6.379 59.31 6.544a7.514 7.514 0 1 0 6.969-13.314zM219.846 143.07c11.146-10.843 25.673-16.309 39.947-16.309 13.373 0 26.526 4.799 36.463 14.466 9.536 9.278 14.788 21.774 14.789 35.187 0 11.054-3.5 21.685-9.982 30.764a418.182 418.182 0 0 0-8.531 9.504c-14.02 12.515-32.773 17.032-49.678 13.385-4.637-1.196-9.071-2.585-13.327-4.83a50.211 50.211 0 0 1-11.575-8.41c-9.536-9.278-14.788-21.774-14.788-35.187-.001-14.406 5.924-28.104 16.682-38.57zM98.547 250.221c-9.536-9.278-14.788-21.774-14.789-35.187 0-14.407 5.925-28.105 16.682-38.571 11.146-10.844 25.672-16.308 39.947-16.308 13.373 0 26.526 4.798 36.464 14.466 9.536 9.278 14.788 21.774 14.788 35.186 0 14.408-5.925 28.105-16.683 38.571-21.588 21.004-55.865 21.829-76.409 1.843zm7.681 230.483c-21.589 21.004-55.866 21.829-76.411 1.843-9.536-9.278-14.788-21.773-14.788-35.186 0-14.408 5.924-28.105 16.682-38.571 11.146-10.845 25.673-16.309 39.947-16.309 13.373 0 26.526 4.798 36.463 14.466 9.536 9.278 14.788 21.774 14.789 35.186.001 14.408-5.924 28.106-16.682 38.571zm119.388-33.458c-21.589 21.003-55.867 21.829-76.411 1.843-9.536-9.278-14.788-21.773-14.789-35.186 0-14.407 5.925-28.105 16.683-38.572 11.146-10.844 25.673-16.309 39.947-16.309 13.373 0 26.526 4.799 36.464 14.467 9.536 9.278 14.788 21.774 14.789 35.186-.001 14.407-5.925 28.105-16.683 38.571zm34.337-116.177c-21.588 21.003-55.866 21.829-76.411 1.843-9.536-9.278-14.788-21.774-14.789-35.187 0-14.408 5.925-28.105 16.682-38.571 11.146-10.844 25.673-16.309 39.948-16.309 13.374 0 26.526 4.799 36.463 14.466 9.455 9.198 14.789 22.004 14.789 35.188 0 14.406-5.924 28.104-16.682 38.57zm84.836-121.618c13.373 0 26.525 4.799 36.463 14.466 9.536 9.278 14.788 21.773 14.789 35.186 0 14.407-5.925 28.105-16.682 38.572-21.589 21.004-55.866 21.83-76.41 1.842-9.536-9.278-14.788-21.774-14.789-35.186 0-14.407 5.925-28.105 16.683-38.571 11.145-10.844 25.672-16.309 39.946-16.309zm110.786-48.056c2.858 3.745 6.956 11.356 2.296 20.254-7.072 13.504-20.343 15.097-30.363 10.686-12.96-5.708-22.369-21.589-15.603-44.683 20.473-3.148 36.518 4.37 43.67 13.743z"/></svg>
