<svg id="Capa_1" enable-background="new 0 0 512 512" height="512" viewBox="0 0 512 512" width="512" xmlns="http://www.w3.org/2000/svg"><path d="m389.287 94.24c.663 47.265-48.526 84.921-48.526 84.921s-50.262-38.975-50.925-86.24 48.526-84.921 48.526-84.921 50.263 38.975 50.925 86.24z" fill="#98db7c"/><path d="m338.362 8s-3.683 2.822-9.015 7.881c14.488 13.711 41.456 43.82 41.94 78.359.481 34.338-25.346 63.6-39.511 77.04 5.338 5.052 8.985 7.881 8.985 7.881s49.189-37.656 48.526-84.921c-.662-47.265-50.925-86.24-50.925-86.24z" fill="#82d361"/><g fill="#936cff"><ellipse cx="69.335" cy="444.335" rx="62.046" ry="58.925" transform="matrix(.876 -.482 .482 .876 -205.603 88.456)"/><ellipse cx="222.761" cy="295.005" rx="62.046" ry="58.925" transform="matrix(.876 -.482 .482 .876 -114.615 143.916)"/><ellipse cx="307.591" cy="377.526" rx="62.046" ry="58.925" transform="matrix(.876 -.482 .482 .876 -143.887 195.029)"/><ellipse cx="137.93" cy="212.485" rx="62.046" ry="58.925" transform="matrix(.876 -.482 .482 .876 -85.344 92.804)"/><ellipse cx="103.66" cy="328.425" rx="62.046" ry="58.925" transform="matrix(.876 -.482 .482 .876 -145.475 90.643)"/><ellipse cx="188.49" cy="410.945" rx="62.046" ry="58.925" transform="matrix(.876 -.482 .482 .876 -174.744 141.752)"/><ellipse cx="257.102" cy="179.161" rx="62.046" ry="58.925" transform="matrix(.876 -.482 .482 .876 -54.52 146.124)"/><ellipse cx="341.933" cy="261.681" rx="62.046" ry="58.925" transform="matrix(.876 -.482 .482 .876 -83.792 197.233)"/></g><path d="m111.75 465.854c-24.469 23.803-63.295 24.626-86.72 1.839-8.847-8.607-14.227-19.351-16.185-30.672-3.082 18.045 2.267 36.873 16.185 50.413 23.425 22.787 62.251 21.964 86.72-1.839 15.228-14.813 21.301-35.034 18.075-53.688-2.105 12.326-8.144 24.287-18.075 33.947z" fill="#8165ea"/><path d="m265.176 316.525c-24.469 23.803-63.295 24.626-86.72 1.839-8.847-8.607-14.227-19.351-16.185-30.672-3.083 18.045 2.266 36.873 16.185 50.413 23.425 22.787 62.251 21.964 86.72-1.839 15.228-14.813 21.301-35.034 18.075-53.688-2.106 12.326-8.145 24.286-18.075 33.947z" fill="#8165ea"/><path d="m350.006 399.045c-24.469 23.803-63.295 24.626-86.72 1.839-8.847-8.606-14.227-19.35-16.185-30.671-3.083 18.045 2.266 36.873 16.185 50.412 23.425 22.787 62.251 21.964 86.72-1.839 15.228-14.813 21.301-35.034 18.075-53.688-2.106 12.326-8.144 24.287-18.075 33.947z" fill="#8165ea"/><path d="m180.345 234.004c-24.469 23.803-63.295 24.626-86.72 1.839-8.847-8.606-14.227-19.351-16.185-30.672-3.083 18.045 2.267 36.873 16.185 50.413 23.425 22.787 62.251 21.964 86.72-1.839 15.228-14.813 21.301-35.034 18.075-53.688-2.105 12.326-8.144 24.287-18.075 33.947z" fill="#8165ea"/><path d="m146.075 349.944c-24.469 23.803-63.295 24.626-86.72 1.839-8.847-8.606-14.227-19.351-16.185-30.671-3.082 18.045 2.266 36.873 16.185 50.413 23.425 22.787 62.251 21.964 86.72-1.839 15.228-14.813 21.301-35.034 18.075-53.688-2.106 12.325-8.145 24.286-18.075 33.946z" fill="#8165ea"/><path d="m230.905 432.464c-24.469 23.803-63.295 24.626-86.721 1.839-8.847-8.606-14.227-19.351-16.185-30.672-3.082 18.045 2.267 36.873 16.185 50.412 23.425 22.787 62.251 21.964 86.721-1.839 15.228-14.813 21.301-35.034 18.075-53.688-2.106 12.327-8.144 24.288-18.075 33.948z" fill="#8165ea"/><path d="m299.517 200.68c-24.469 23.803-63.295 24.626-86.72 1.839-8.847-8.606-14.227-19.351-16.185-30.671-3.083 18.045 2.266 36.873 16.185 50.412 23.425 22.787 62.251 21.964 86.72-1.839 15.228-14.813 21.301-35.034 18.075-53.688-2.105 12.326-8.144 24.286-18.075 33.947z" fill="#8165ea"/><path d="m384.348 283.2c-24.469 23.803-63.295 24.626-86.721 1.839-8.847-8.606-14.227-19.351-16.185-30.671-3.082 18.045 2.266 36.873 16.185 50.413 23.425 22.787 62.251 21.964 86.721-1.839 15.228-14.813 21.301-35.034 18.075-53.688-2.106 12.325-8.145 24.286-18.075 33.946z" fill="#8165ea"/><path d="m507.969 104.303c-1.572-.824-38.878-20.005-71.665-7.26-16.088 6.255-28.103 18.922-35.758 37.685-5.646 1.546-11.358 3.745-17.059 6.438 8.892-15.484 13.554-31.164 13.58-46.153.007-4.15-3.351-7.521-7.501-7.528-.005 0-.009 0-.014 0-4.144 0-7.507 3.357-7.514 7.503-.06 34.351-29.537 63.924-41.104 74.206-11.94-10.613-43.028-41.582-43.52-76.687-.487-34.751 29.419-64.771 41.094-75.151 8.896 7.919 28.425 27.152 38.003 50.939 1.551 3.85 5.926 5.715 9.778 4.164 3.85-1.55 5.714-5.928 4.163-9.779-14.123-35.075-45.978-60.056-47.327-61.102-2.696-2.092-6.463-2.103-9.173-.028-2.135 1.634-52.275 40.611-51.566 91.168.111 7.956 1.536 16.142 4.214 24.426-25.114-10.592-56.057-5.452-77.236 15.153-9.876 9.609-16.531 21.41-19.485 34.182-.823-.896-1.671-1.775-2.551-2.631-26.323-25.609-70.003-24.784-97.37 1.842-13.692 13.32-21.232 30.844-21.232 49.345 0 17.507 6.868 33.829 19.339 45.961.744.724 1.506 1.422 2.277 2.104-12.651 2.827-24.766 9.083-34.721 18.768-6.04 5.875-10.917 12.624-14.496 20.06-1.8 3.74-.229 8.232 3.511 10.032 3.738 1.799 8.23.227 10.03-3.511 2.814-5.845 6.661-11.163 11.434-15.807 21.589-21.001 55.866-21.829 76.41-1.843 9.447 9.191 14.788 22.011 14.789 35.186 0 14.408-5.925 28.105-16.682 38.571-21.588 21.005-55.866 21.831-76.41 1.843-8.751-8.513-13.972-19.942-14.699-32.18-.247-4.143-3.798-7.332-7.947-7.056-4.143.246-7.302 3.805-7.056 7.948.951 15.99 7.777 30.928 19.223 42.062.731.711 1.479 1.396 2.236 2.067-12.656 2.826-24.776 9.087-34.734 18.776-13.69 13.32-21.23 30.844-21.23 49.345 0 17.507 6.868 33.829 19.338 45.96 12.825 12.478 29.77 18.679 46.942 18.679 18.071 0 36.395-6.87 50.428-20.522 9.887-9.619 16.547-21.436 19.495-34.225.816.888 1.652 1.762 2.523 2.609 12.826 12.478 29.77 18.679 46.942 18.679 18.071 0 36.395-6.87 50.428-20.522 9.88-9.612 16.549-21.415 19.501-34.192.798.866 1.613 1.72 2.463 2.547 12.825 12.478 29.77 18.679 46.942 18.679 18.071-.001 36.395-6.87 50.428-20.522 4.358-4.24 8.143-8.979 11.249-14.085 2.157-3.545 1.032-8.169-2.514-10.327s-8.168-1.031-10.326 2.514c-2.448 4.024-5.439 7.766-8.889 11.123-21.589 21.003-55.865 21.829-76.41 1.843-9.537-9.278-14.789-21.775-14.789-35.188.001-14.406 5.925-28.104 16.683-38.57 21.588-21.002 55.865-21.829 76.41-1.843 10.142 9.866 15.376 23.171 14.737 37.464-.185 4.147 3.026 7.658 7.172 7.843 4.137.224 7.657-3.026 7.842-7.172.832-18.641-6.012-36.01-19.272-48.91-.711-.692-1.44-1.358-2.176-2.011 12.64-2.831 24.744-9.087 34.691-18.765 13.692-13.321 21.232-30.845 21.232-49.346 0-17.507-6.868-33.829-19.339-45.961-15.48-15.06-36.961-20.966-57.598-17.871 17.691-16.56 40.001-34.421 61.324-42.983-4.391 27.053 9.265 46.434 25.994 53.802 19.416 8.55 39.867 1.369 49.733-17.466 6.228-11.891 4.893-25.138-3.661-36.349-10.455-13.701-28.789-21.082-48.957-20.327 5.808-10.135 13.552-17.135 23.124-20.873 26.373-10.295 58.993 6.379 59.31 6.544 3.678 1.927 8.218.505 10.143-3.174 1.923-3.675.503-8.215-3.174-10.14zm-288.123 38.767c11.146-10.843 25.673-16.309 39.947-16.309 13.373 0 26.526 4.799 36.463 14.466 9.536 9.278 14.788 21.774 14.789 35.187 0 11.054-3.5 21.685-9.982 30.764-3.511 3.797-6.398 7.05-8.531 9.504-14.02 12.515-32.773 17.032-49.678 13.385-4.637-1.196-9.071-2.585-13.327-4.83-4.234-2.233-8.144-5.072-11.575-8.41-9.536-9.278-14.788-21.774-14.788-35.187-.001-14.406 5.924-28.104 16.682-38.57zm-121.299 107.151c-9.536-9.278-14.788-21.774-14.789-35.187 0-14.407 5.925-28.105 16.682-38.571 11.146-10.844 25.672-16.308 39.947-16.308 13.373 0 26.526 4.798 36.464 14.466 9.536 9.278 14.788 21.774 14.788 35.186 0 14.408-5.925 28.105-16.683 38.571-21.588 21.004-55.865 21.829-76.409 1.843zm7.681 230.483c-21.589 21.004-55.866 21.829-76.411 1.843-9.536-9.278-14.788-21.773-14.788-35.186 0-14.408 5.924-28.105 16.682-38.571 11.146-10.845 25.673-16.309 39.947-16.309 13.373 0 26.526 4.798 36.463 14.466 9.536 9.278 14.788 21.774 14.789 35.186.001 14.408-5.924 28.106-16.682 38.571zm119.388-33.458c-21.589 21.003-55.867 21.829-76.411 1.843-9.536-9.278-14.788-21.773-14.789-35.186 0-14.407 5.925-28.105 16.683-38.572 11.146-10.844 25.673-16.309 39.947-16.309 13.373 0 26.526 4.799 36.464 14.467 9.536 9.278 14.788 21.774 14.789 35.186-.001 14.407-5.925 28.105-16.683 38.571zm34.337-116.177c-21.588 21.003-55.866 21.829-76.411 1.843-9.536-9.278-14.788-21.774-14.789-35.187 0-14.408 5.925-28.105 16.682-38.571 11.146-10.844 25.673-16.309 39.948-16.309 13.374 0 26.526 4.799 36.463 14.466 9.455 9.198 14.789 22.004 14.789 35.188 0 14.406-5.924 28.104-16.682 38.57zm84.836-121.618c13.373 0 26.525 4.799 36.463 14.466 9.536 9.278 14.788 21.773 14.789 35.186 0 14.407-5.925 28.105-16.682 38.572-21.589 21.004-55.866 21.83-76.41 1.842-9.536-9.278-14.788-21.774-14.789-35.186 0-14.407 5.925-28.105 16.683-38.571 11.145-10.844 25.672-16.309 39.946-16.309zm110.786-48.056c2.858 3.745 6.956 11.356 2.296 20.254-7.072 13.504-20.343 15.097-30.363 10.686-12.96-5.708-22.369-21.589-15.603-44.683 20.473-3.148 36.518 4.37 43.67 13.743z"/></svg>