<?xml version="1.0" encoding="iso-8859-1"?>
<!-- Generator: Adobe Illustrator 19.0.0, SVG Export Plug-In . SVG Version: 6.00 Build 0)  -->
<svg version="1.1" id="Capa_1" xmlns="http://www.w3.org/2000/svg" xmlns:xlink="http://www.w3.org/1999/xlink" x="0px" y="0px"
	 viewBox="0 0 512 512" style="enable-background:new 0 0 512 512;" xml:space="preserve">
<path style="fill:#F8C800;" d="M478.005,477.997L478.005,477.997c-45.327,45.327-118.818,45.327-164.146,0L34.024,198.162
	c-45.327-45.327-45.327-118.817,0-164.145l0,0c45.327-45.327,118.817-45.327,164.145,0l279.836,279.836
	C523.332,359.179,523.332,432.67,478.005,477.997z"/>
<path style="fill:#F1A400;" d="M351.638,451.627L60.394,160.382c-37.74-37.74-41.604-96.407-11.805-138.561
	c-5.082,3.647-9.998,7.628-14.565,12.195c-45.327,45.327-45.327,118.818,0,164.146l279.836,279.836
	c45.327,45.327,118.818,45.327,164.146,0c4.567-4.567,8.548-9.483,12.195-14.565C448.045,493.23,389.378,489.366,351.638,451.627z"
	/>
<path style="fill:#EF111A;" d="M338.129,173.944L173.968,338.106L33.999,198.137c-45.333-45.333-45.333-118.768,0-164.101
	c1.405-1.405,2.871-2.75,4.337-4.094c0.978-0.856,1.894-1.649,2.871-2.505C62.775,9.171,89.413,0.008,116.05,0.008
	c29.692,0,59.445,11.302,82.111,33.969L338.129,173.944z"/>
<path style="fill:#CA0000;" d="M60.393,160.381l145.649,145.649l-32.074,32.074L33.999,198.137
	c-45.333-45.333-45.333-118.768,0-164.101c1.405-1.405,2.871-2.75,4.337-4.094c0.978-0.856,1.894-1.649,2.871-2.505
	c2.444-1.955,4.888-3.789,7.332-5.62C18.787,64.035,22.635,122.624,60.393,160.381z"/>
<ellipse style="fill:#FF6D58;" cx="113.337" cy="41.455" rx="34.564" ry="18.36"/>
<g>
</g>
<g>
</g>
<g>
</g>
<g>
</g>
<g>
</g>
<g>
</g>
<g>
</g>
<g>
</g>
<g>
</g>
<g>
</g>
<g>
</g>
<g>
</g>
<g>
</g>
<g>
</g>
<g>
</g>
</svg>
