<svg xmlns="http://www.w3.org/2000/svg" viewBox="0 0 512 512" style="enable-background:new 0 0 512 512" xml:space="preserve"><path style="fill:#f8c800" d="M478.005 477.997c-45.327 45.327-118.818 45.327-164.146 0L34.024 198.162c-45.327-45.327-45.327-118.817 0-164.145 45.327-45.327 118.817-45.327 164.145 0l279.836 279.836c45.327 45.326 45.327 118.817 0 164.144z"/><path style="fill:#f1a400" d="M351.638 451.627 60.394 160.382c-37.74-37.74-41.604-96.407-11.805-138.561-5.082 3.647-9.998 7.628-14.565 12.195-45.327 45.327-45.327 118.818 0 164.146L313.86 477.998c45.327 45.327 118.818 45.327 164.146 0 4.567-4.567 8.548-9.483 12.195-14.565-42.156 29.797-100.823 25.933-138.563-11.806z"/><path style="fill:#ef111a" d="M338.129 173.944 173.968 338.106 33.999 198.137c-45.333-45.333-45.333-118.768 0-164.101 1.405-1.405 2.871-2.75 4.337-4.094.978-.856 1.894-1.649 2.871-2.505C62.775 9.171 89.413.008 116.05.008c29.692 0 59.445 11.302 82.111 33.969l139.968 139.967z"/><path style="fill:#ca0000" d="M60.393 160.381 206.042 306.03l-32.074 32.074L33.999 198.137c-45.333-45.333-45.333-118.768 0-164.101 1.405-1.405 2.871-2.75 4.337-4.094.978-.856 1.894-1.649 2.871-2.505 2.444-1.955 4.888-3.789 7.332-5.62-29.752 42.218-25.904 100.807 11.854 138.564z"/><ellipse style="fill:#ff6d58" cx="113.337" cy="41.455" rx="34.564" ry="18.36"/></svg>
