<svg xmlns="http://www.w3.org/2000/svg" viewBox="0 0 512.002 512.002" style="enable-background:new 0 0 512.002 512.002" xml:space="preserve"><path style="fill:#f58fbf" d="M512 136.666c0 .169-.013.342-.015.512.078-5.669-.864-11.091-2.908-16.221l-2.304-5.781-.256-.643-.512-1.284-.256-.643-.512-1.284-.512-1.284-.256-.642-.512-1.284c.015.038.025.076.04.114-3.819-9.673-11.682-18.205-24-25.303-32.625-18.872-82.563-19.563-140.429-6.433-14.582 3.317-29.743 7.693-44.973 12.5-15.366 4.999-31.083 10.945-46.807 17.312-15.796 6.521-31.739 13.888-47.583 21.64-15.878 7.882-31.717 16.513-47.326 25.476-15.425 9.071-30.274 18.274-43.829 27.498-13.332 9.202-25.997 18.462-37.204 27.633-10.941 9.129-21.155 18.252-29.735 27.169-8.249 8.838-15.756 17.634-21.433 26.09-4.784 7.142-8.476 14.072-11.028 20.741.182-.475.358-.949.552-1.427L5.01 293.944C1.79 301.896.141 309.526.174 316.748c-.001-.115-.01-.227-.01-.342L0 375.332c-.018 6.222 1.217 12.142 3.781 17.704a42.383 42.383 0 0 1-.859-1.992l5.118 12.843c3.836 9.628 11.692 18.123 23.966 25.195 32.621 18.87 82.554 19.56 140.419 6.431 14.581-3.316 29.742-7.693 44.972-12.5 15.366-4.999 31.083-10.945 46.807-17.312 15.796-6.521 31.74-13.888 47.584-21.641 15.878-7.882 31.718-16.514 47.328-25.478 15.424-9.071 30.273-18.273 43.827-27.495 13.331-9.202 25.996-18.461 37.203-27.632 10.94-9.129 21.155-18.252 29.735-27.169 8.249-8.838 15.756-17.634 21.434-26.091 4.444-6.635 7.957-13.088 10.479-19.319l5.192-12.821c-.037.091-.078.183-.116.274 3.241-7.924 4.942-15.533 4.962-22.737l.168-58.926z"/><path style="fill:#ef72ac" d="M275.492 215.264c-51.139-29.526-108.954-41.549-111.996-42.181l-.167 58.924c3.043.633 60.857 12.657 111.996 42.181 51.131 29.52 72.078 62.97 73.18 64.73l.167-58.924c-1.103-1.76-22.049-35.209-73.18-64.73z"/><path style="fill:#ef539d" d="M279.246 199.59c-51.97-30.005-110.779-42.237-124.487-45.088l8.736 18.581c3.043.633 60.857 12.656 111.996 42.181 51.131 29.52 72.078 62.97 73.18 64.73l8.814-8.449c-4.968-7.93-26.277-41.955-78.239-71.955z"/><path style="fill:#ef72ac" d="m506.986 218.054-5.192 12.821c-2.523 6.231-6.035 12.684-10.479 19.319-5.678 8.456-13.185 17.253-21.434 26.091-8.58 8.917-18.794 18.04-29.735 27.169-11.207 9.17-23.872 18.43-37.203 27.632-13.554 9.223-28.403 18.426-43.827 27.495-15.61 8.964-31.449 17.596-47.328 25.478-15.844 7.752-31.788 15.119-47.584 21.64-15.725 6.368-31.441 12.314-46.807 17.312-15.23 4.808-30.391 9.184-44.971 12.5-57.864 13.129-107.798 12.438-140.419-6.431-12.273-7.072-20.13-15.567-23.966-25.195l-5.118-12.843c4.041 10.14 12.35 19.145 25.407 26.683 34.574 19.962 86.79 20.599 146.075 7.115 14.821-3.371 30.085-7.625 45.624-12.68 15.54-5.055 31.356-10.911 47.284-17.487s31.967-13.872 47.952-21.807a824.398 824.398 0 0 0 47.63-25.64c15.711-9.13 30.46-18.386 44.106-27.671s26.189-18.599 37.49-27.846c11.301-9.247 21.359-18.428 30.036-27.445 8.676-9.017 15.97-17.873 21.741-26.469 4.535-6.756 8.131-13.351 10.718-19.741z"/><path style="fill:#f58fbf" d="m512 136.666-.167 58.924c-.037 12.935-5.474 27.175-15.566 42.204-5.772 8.596-13.065 17.451-21.741 26.469-8.676 9.017-18.734 18.198-30.036 27.445-11.301 9.247-23.845 18.562-37.49 27.847-13.645 9.285-28.395 18.541-44.106 27.671a824.682 824.682 0 0 1-47.63 25.64c-15.985 7.935-32.024 15.231-47.952 21.807-15.927 6.577-31.744 12.432-47.284 17.487-15.54 5.055-30.803 9.309-45.624 12.68-59.285 13.484-111.501 12.847-146.075-7.115C8.864 406.488-.047 391.991 0 375.332l.167-58.924c-.047 16.659 8.864 31.156 28.329 42.395 34.574 19.962 86.79 20.599 146.075 7.115 14.821-3.371 30.085-7.625 45.624-12.68s31.356-10.911 47.284-17.487 31.967-13.872 47.952-21.807a824.398 824.398 0 0 0 47.63-25.64c15.711-9.13 30.46-18.386 44.106-27.671s26.189-18.599 37.49-27.847c11.301-9.247 21.359-18.428 30.036-27.445 8.676-9.017 15.97-17.873 21.741-26.469 10.092-15.031 15.53-29.27 15.566-42.206z"/><path style="fill:#f7afd4" d="m503.96 108.113.512 1.284.256.642.512 1.284.512 1.284.256.643.512 1.284.256.643 2.304 5.781c6.66 16.713 1.726 36.511-12.643 57.913-5.772 8.596-13.065 17.451-21.741 26.469-8.676 9.017-18.734 18.198-30.036 27.445s-23.845 18.562-37.49 27.847c-13.646 9.285-28.395 18.541-44.106 27.671a824.682 824.682 0 0 1-47.63 25.64c-15.986 7.935-32.024 15.231-47.952 21.807-15.927 6.577-31.744 12.432-47.284 17.487-15.54 5.055-30.803 9.309-45.624 12.68-59.285 13.484-111.501 12.847-146.075-7.115C.711 342.759-5.569 320.079 5.014 293.945l5.192-12.822c-10.239 25.285-4.182 46.892 22.045 62.004 32.62 18.87 82.554 19.561 140.419 6.431 14.581-3.317 29.742-7.693 44.972-12.5 15.366-4.999 31.083-10.945 46.807-17.312 15.796-6.521 31.74-13.888 47.584-21.64 15.878-7.882 31.718-16.514 47.328-25.478 15.424-9.071 30.273-18.273 43.827-27.495 13.331-9.202 25.996-18.461 37.203-27.632 10.94-9.129 21.155-18.252 29.735-27.169 8.249-8.838 15.756-17.634 21.434-26.091 14.037-20.961 18.78-40.113 12.4-56.128z"/><path style="fill:#f58fbf" d="M480 82.925c32.683 18.833 34.036 47.756 11.559 81.316-5.678 8.456-13.185 17.253-21.434 26.091-8.58 8.917-18.794 18.04-29.735 27.169-11.207 9.171-23.872 18.43-37.203 27.632-13.554 9.223-28.403 18.426-43.827 27.495-15.61 8.964-31.449 17.596-47.328 25.478-15.844 7.752-31.788 15.119-47.584 21.64-15.725 6.368-31.441 12.314-46.807 17.312-15.23 4.808-30.391 9.184-44.972 12.5-57.864 13.129-107.798 12.438-140.419-6.431-32.688-18.835-34.045-47.758-11.569-81.319 5.677-8.456 13.183-17.253 21.433-26.09 8.579-8.917 18.794-18.04 29.735-27.169 11.208-9.171 23.873-18.43 37.204-27.633 13.555-9.223 28.405-18.426 43.829-27.498 15.609-8.963 31.447-17.595 47.326-25.476 15.844-7.752 31.787-15.118 47.583-21.64 15.725-6.367 31.441-12.313 46.807-17.312 15.23-4.808 30.392-9.184 44.973-12.5C397.437 63.362 447.375 64.052 480 82.925zM233.005 226.462c51.961 30.001 110.772 42.233 124.481 45.083-4.967-7.931-26.277-41.956-78.239-71.956-51.97-30.005-110.779-42.237-124.487-45.088 4.965 7.932 26.274 41.957 78.245 71.961"/></svg>
