<?xml version="1.0" encoding="iso-8859-1"?>
<!-- Generator: Adobe Illustrator 19.0.0, SVG Export Plug-In . SVG Version: 6.00 Build 0)  -->
<svg version="1.1" id="Layer_1" xmlns="http://www.w3.org/2000/svg" xmlns:xlink="http://www.w3.org/1999/xlink" x="0px" y="0px"
	 viewBox="0 0 512.002 512.002" style="enable-background:new 0 0 512.002 512.002;" xml:space="preserve">
<path style="fill:#F58FBF;" d="M512,136.666c0,0.169-0.013,0.342-0.015,0.512c0.078-5.669-0.864-11.091-2.908-16.221
	c-0.768-1.927-1.536-3.855-2.304-5.781c-0.077-0.192-0.179-0.449-0.256-0.643c-0.154-0.386-0.358-0.899-0.512-1.284
	c-0.076-0.192-0.179-0.449-0.256-0.643c-0.154-0.386-0.358-0.899-0.512-1.284c-0.154-0.386-0.358-0.899-0.512-1.284
	c-0.076-0.192-0.179-0.449-0.256-0.642c-0.154-0.386-0.358-0.899-0.512-1.284c0.015,0.038,0.025,0.076,0.04,0.114
	c-3.819-9.673-11.682-18.205-24-25.303c-32.625-18.872-82.563-19.563-140.429-6.433c-14.582,3.317-29.743,7.693-44.973,12.5
	c-15.366,4.999-31.083,10.945-46.807,17.312c-15.796,6.521-31.739,13.888-47.583,21.64c-15.878,7.882-31.717,16.513-47.326,25.476
	c-15.425,9.071-30.274,18.274-43.829,27.498c-13.332,9.202-25.997,18.462-37.204,27.633c-10.941,9.129-21.155,18.252-29.735,27.169
	c-8.249,8.838-15.756,17.634-21.433,26.09c-4.784,7.142-8.476,14.072-11.028,20.741c0.182-0.475,0.358-0.949,0.552-1.427
	c-1.73,4.274-3.462,8.548-5.192,12.822c-3.22,7.952-4.869,15.582-4.836,22.804c-0.001-0.115-0.01-0.227-0.01-0.342L0,375.332
	c-0.018,6.222,1.217,12.142,3.781,17.704c-0.304-0.659-0.591-1.323-0.859-1.992c1.706,4.281,3.412,8.562,5.118,12.843
	c3.836,9.628,11.692,18.123,23.966,25.195c32.621,18.87,82.554,19.56,140.419,6.431c14.581-3.316,29.742-7.693,44.972-12.5
	c15.366-4.999,31.083-10.945,46.807-17.312c15.796-6.521,31.74-13.888,47.584-21.641c15.878-7.882,31.718-16.514,47.328-25.478
	c15.424-9.071,30.273-18.273,43.827-27.495c13.331-9.202,25.996-18.461,37.203-27.632c10.94-9.129,21.155-18.252,29.735-27.169
	c8.249-8.838,15.756-17.634,21.434-26.091c4.444-6.635,7.957-13.088,10.479-19.319c1.73-4.274,3.462-8.547,5.192-12.821
	c-0.037,0.091-0.078,0.183-0.116,0.274c3.241-7.924,4.942-15.533,4.962-22.737L512,136.666z"/>
<path style="fill:#EF72AC;" d="M275.492,215.264L275.492,215.264L275.492,215.264c-51.139-29.526-108.954-41.549-111.996-42.181
	l-0.167,58.924c3.043,0.633,60.857,12.657,111.996,42.181c51.131,29.52,72.078,62.97,73.18,64.73l0.167-58.924
	C347.569,278.234,326.623,244.785,275.492,215.264z"/>
<path style="fill:#EF539D;" d="M279.246,199.59c-51.97-30.005-110.779-42.237-124.487-45.088l8.736,18.581
	c3.043,0.633,60.857,12.656,111.996,42.181c51.131,29.52,72.078,62.97,73.18,64.73l8.814-8.449
	C352.517,263.615,331.208,229.59,279.246,199.59z"/>
<path style="fill:#EF72AC;" d="M506.986,218.054c-1.73,4.274-3.462,8.547-5.192,12.821c-2.523,6.231-6.035,12.684-10.479,19.319
	c-5.678,8.456-13.185,17.253-21.434,26.091c-8.58,8.917-18.794,18.04-29.735,27.169c-11.207,9.17-23.872,18.43-37.203,27.632
	c-13.554,9.223-28.403,18.426-43.827,27.495c-15.61,8.964-31.449,17.596-47.328,25.478c-15.844,7.752-31.788,15.119-47.584,21.64
	c-15.725,6.368-31.441,12.314-46.807,17.312c-15.23,4.808-30.391,9.184-44.971,12.5c-57.864,13.129-107.798,12.438-140.419-6.431
	c-12.273-7.072-20.13-15.567-23.966-25.195c-1.706-4.281-3.412-8.562-5.118-12.843c4.041,10.14,12.35,19.145,25.407,26.683
	c34.574,19.962,86.79,20.599,146.075,7.115c14.821-3.371,30.085-7.625,45.624-12.68c15.54-5.055,31.356-10.911,47.284-17.487
	s31.967-13.872,47.952-21.807c15.986-7.935,31.917-16.508,47.63-25.64c15.711-9.13,30.46-18.386,44.106-27.671
	c13.646-9.285,26.189-18.599,37.49-27.846c11.301-9.247,21.359-18.428,30.036-27.445c8.676-9.017,15.97-17.873,21.741-26.469
	C500.803,231.039,504.399,224.444,506.986,218.054z"/>
<path style="fill:#F58FBF;" d="M512,136.666l-0.167,58.924c-0.037,12.935-5.474,27.175-15.566,42.204
	c-5.772,8.596-13.065,17.451-21.741,26.469c-8.676,9.017-18.734,18.198-30.036,27.445c-11.301,9.247-23.845,18.562-37.49,27.847
	c-13.645,9.285-28.395,18.541-44.106,27.671c-15.712,9.131-31.644,17.705-47.63,25.64c-15.985,7.935-32.024,15.231-47.952,21.807
	c-15.927,6.577-31.744,12.432-47.284,17.487c-15.54,5.055-30.803,9.309-45.624,12.68c-59.285,13.484-111.501,12.847-146.075-7.115
	C8.864,406.488-0.047,391.991,0,375.332l0.167-58.924c-0.047,16.659,8.864,31.156,28.329,42.395
	c34.574,19.962,86.79,20.599,146.075,7.115c14.821-3.371,30.085-7.625,45.624-12.68s31.356-10.911,47.284-17.487
	s31.967-13.872,47.952-21.807c15.986-7.935,31.917-16.508,47.63-25.64c15.711-9.13,30.46-18.386,44.106-27.671
	c13.646-9.285,26.189-18.599,37.49-27.847c11.301-9.247,21.359-18.428,30.036-27.445c8.676-9.017,15.97-17.873,21.741-26.469
	C506.526,163.841,511.964,149.602,512,136.666z"/>
<path style="fill:#F7AFD4;" d="M503.96,108.113c0.154,0.386,0.358,0.899,0.512,1.284c0.076,0.192,0.179,0.449,0.256,0.642
	c0.154,0.386,0.358,0.899,0.512,1.284c0.154,0.386,0.358,0.899,0.512,1.284c0.076,0.192,0.179,0.449,0.256,0.643
	c0.154,0.386,0.358,0.899,0.512,1.284c0.076,0.192,0.179,0.449,0.256,0.643c0.768,1.928,1.536,3.855,2.304,5.781
	c6.66,16.713,1.726,36.511-12.643,57.913c-5.772,8.596-13.065,17.451-21.741,26.469c-8.676,9.017-18.734,18.198-30.036,27.445
	c-11.302,9.247-23.845,18.562-37.49,27.847c-13.646,9.285-28.395,18.541-44.106,27.671c-15.712,9.131-31.644,17.705-47.63,25.64
	c-15.986,7.935-32.024,15.231-47.952,21.807c-15.927,6.577-31.744,12.432-47.284,17.487c-15.54,5.055-30.803,9.309-45.624,12.68
	c-59.285,13.484-111.501,12.847-146.075-7.115C0.711,342.759-5.569,320.079,5.014,293.945l0,0c1.73-4.274,3.462-8.548,5.192-12.822
	c-10.239,25.285-4.182,46.892,22.045,62.004c32.62,18.87,82.554,19.561,140.419,6.431c14.581-3.317,29.742-7.693,44.972-12.5
	c15.366-4.999,31.083-10.945,46.807-17.312c15.796-6.521,31.74-13.888,47.584-21.64c15.878-7.882,31.718-16.514,47.328-25.478
	c15.424-9.071,30.273-18.273,43.827-27.495c13.331-9.202,25.996-18.461,37.203-27.632c10.94-9.129,21.155-18.252,29.735-27.169
	c8.249-8.838,15.756-17.634,21.434-26.091C505.597,143.28,510.34,124.128,503.96,108.113z"/>
<path style="fill:#F58FBF;" d="M480,82.925c32.683,18.833,34.036,47.756,11.559,81.316c-5.678,8.456-13.185,17.253-21.434,26.091
	c-8.58,8.917-18.794,18.04-29.735,27.169c-11.207,9.171-23.872,18.43-37.203,27.632c-13.554,9.223-28.403,18.426-43.827,27.495
	c-15.61,8.964-31.449,17.596-47.328,25.478c-15.844,7.752-31.788,15.119-47.584,21.64c-15.725,6.368-31.441,12.314-46.807,17.312
	c-15.23,4.808-30.391,9.184-44.972,12.5c-57.864,13.129-107.798,12.438-140.419-6.431c-32.688-18.835-34.045-47.758-11.569-81.319
	c5.677-8.456,13.183-17.253,21.433-26.09c8.579-8.917,18.794-18.04,29.735-27.169c11.208-9.171,23.873-18.43,37.204-27.633
	c13.555-9.223,28.405-18.426,43.829-27.498c15.609-8.963,31.447-17.595,47.326-25.476c15.844-7.752,31.787-15.118,47.583-21.64
	c15.725-6.367,31.441-12.313,46.807-17.312c15.23-4.808,30.392-9.184,44.973-12.5C397.437,63.362,447.375,64.052,480,82.925z
	 M233.005,226.462c51.961,30.001,110.772,42.233,124.481,45.083c-4.967-7.931-26.277-41.956-78.239-71.956
	c-51.97-30.005-110.779-42.237-124.487-45.088C159.725,162.433,181.034,196.458,233.005,226.462"/>
<g>
</g>
<g>
</g>
<g>
</g>
<g>
</g>
<g>
</g>
<g>
</g>
<g>
</g>
<g>
</g>
<g>
</g>
<g>
</g>
<g>
</g>
<g>
</g>
<g>
</g>
<g>
</g>
<g>
</g>
</svg>
